<svg width="19" height="22" viewBox="0 0 19 22" fill="none" xmlns="http://www.w3.org/2000/svg">
<path d="M18.2719 17.1948C17.9527 17.9324 17.5748 18.6113 17.1367 19.2357C16.5399 20.0866 16.0512 20.6756 15.6746 21.0029C15.0908 21.5397 14.4652 21.8147 13.7953 21.8303C13.3145 21.8303 12.7345 21.6936 12.0595 21.416C11.3822 21.1396 10.7597 21.0029 10.1906 21.0029C9.59375 21.0029 8.9536 21.1396 8.26889 21.416C7.58313 21.6936 7.03069 21.8382 6.60831 21.8526C5.96596 21.8798 5.32569 21.597 4.68658 21.0029C4.27867 20.647 3.76847 20.037 3.15724 19.1731C2.50147 18.2504 1.96233 17.1804 1.53995 15.9606C1.0876 14.6431 0.86084 13.3672 0.86084 12.132C0.86084 10.7171 1.16658 9.49674 1.77896 8.4741C2.26025 7.65269 2.90052 7.00472 3.70187 6.52905C4.50323 6.05337 5.36908 5.81096 6.30154 5.79545C6.81176 5.79545 7.48082 5.95329 8.31228 6.26345C9.1414 6.57465 9.67376 6.73248 9.90717 6.73248C10.0817 6.73248 10.6731 6.54794 11.6756 6.18005C12.6238 5.83886 13.4239 5.69759 14.0794 5.75324C15.8557 5.89659 17.1903 6.59681 18.0777 7.85834C16.4891 8.8209 15.7033 10.1691 15.7189 11.8986C15.7332 13.2457 16.2219 14.3668 17.1824 15.2569C17.6176 15.67 18.1038 15.9893 18.6446 16.216C18.5274 16.5562 18.4035 16.882 18.2719 17.1948ZM14.198 1.1638C14.198 2.21969 13.8123 3.20556 13.0434 4.11809C12.1155 5.20288 10.9932 5.82974 9.77607 5.73083C9.76056 5.60415 9.75156 5.47083 9.75156 5.33073C9.75156 4.31709 10.1928 3.23228 10.9765 2.34531C11.3677 1.89621 11.8653 1.5228 12.4687 1.22492C13.0707 0.931489 13.6403 0.769214 14.1759 0.741425C14.1915 0.88258 14.198 1.02374 14.198 1.16379V1.1638Z" fill="black"/>
</svg>
