<svg width="276" height="268" viewBox="0 0 276 268" fill="none" xmlns="http://www.w3.org/2000/svg">
<circle cx="130.5" cy="137.5" r="130.5" fill="#D9D9D9" fill-opacity="0.84"/>
<circle cx="145.5" cy="130.5" r="130" stroke="#031F3D"/>
<path d="M114.606 176C113.539 176 112.482 175.788 111.496 175.376C110.51 174.964 109.615 174.361 108.861 173.6L78.1821 142.722C76.746 141.172 75.9641 139.121 76.0013 137.001C76.0384 134.882 76.8917 132.86 78.3813 131.361C79.871 129.863 81.8807 129.004 83.987 128.967C86.0933 128.929 88.1319 129.716 89.6731 131.161L114.606 156.247L170.327 100.196C171.868 98.7505 173.907 97.9639 176.013 98.0013C178.119 98.0387 180.129 98.8972 181.619 100.396C183.108 101.895 183.962 103.917 183.999 106.036C184.036 108.155 183.254 110.206 181.818 111.757L120.352 173.6C119.598 174.361 118.702 174.964 117.717 175.376C116.731 175.788 115.674 176 114.606 176V176Z" fill="#292D32"/>
</svg>
