<svg width="14" height="14" viewBox="0 0 14 14" fill="none" xmlns="http://www.w3.org/2000/svg">
<g opacity="0.7" clip-path="url(#clip0_128_909)">
<path d="M7.73501 2.09998L2.94584 7.16915C2.74459 7.40807 2.6098 7.69577 2.55501 8.00332L2.33918 9.8939C2.31088 10.0409 2.32009 10.1926 2.36595 10.3351C2.4118 10.4776 2.49283 10.6063 2.60155 10.7092C2.71027 10.8121 2.84316 10.8859 2.98796 10.9239C3.13276 10.9619 3.28479 10.9627 3.43001 10.9264L5.30834 10.6056C5.61421 10.5384 5.89512 10.3868 6.11918 10.1681L10.9083 5.0989C11.7367 4.2239 12.11 3.2264 10.8208 2.00723C9.53751 0.79915 8.56334 1.22498 7.73501 2.09998Z" stroke="#292D32" stroke-width="1.5" stroke-linecap="round" stroke-linejoin="round"/>
<path d="M6.93579 2.9458C7.05808 3.72797 7.43664 4.44738 8.01205 4.99111C8.58746 5.53484 9.32713 5.87211 10.115 5.94997" stroke="#292D32" stroke-width="1.5" stroke-linecap="round" stroke-linejoin="round"/>
<path d="M1.75 12.8334H12.25" stroke="#292D32" stroke-width="1.5" stroke-linecap="round" stroke-linejoin="round"/>
</g>
<defs>
<clipPath id="clip0_128_909">
<rect width="14" height="14" fill="white"/>
</clipPath>
</defs>
</svg>
