<svg width="40" height="40" viewBox="0 0 40 40" fill="none" xmlns="http://www.w3.org/2000/svg">
<path d="M24.8333 3.33331H15.1666C13.8567 3.40787 12.6109 3.92499 11.6333 4.79998L4.79992 11.6333C3.92493 12.611 3.40781 13.8567 3.33325 15.1666L3.33325 24.8333C3.40781 26.1432 3.92493 27.389 4.79992 28.3666L11.6333 35.2C12.6109 36.075 13.8567 36.5921 15.1666 36.6666H24.8333C26.1432 36.5921 27.3889 36.075 28.3666 35.2L35.1999 28.3666C36.0749 27.389 36.592 26.1432 36.6666 24.8333V15.1666C36.592 13.8567 36.0749 12.611 35.1999 11.6333L28.3666 4.79998C27.3889 3.92499 26.1432 3.40787 24.8333 3.33331V3.33331Z" stroke="#031F3D" stroke-width="1.5" stroke-linecap="round" stroke-linejoin="round"/>
<path d="M14.1667 25.8333L25.8334 14.1667" stroke="#031F3D" stroke-width="1.5" stroke-linecap="round" stroke-linejoin="round"/>
<path d="M25.8334 25.8333L14.1667 14.1667" stroke="#031F3D" stroke-width="1.5" stroke-linecap="round" stroke-linejoin="round"/>
</svg>
