<svg width="22" height="22" viewBox="0 0 22 22" fill="none" xmlns="http://www.w3.org/2000/svg">
<path d="M11.1539 21.8543C16.984 21.8543 21.7103 17.128 21.7103 11.2979C21.7103 5.46771 16.984 0.741425 11.1539 0.741425C5.3237 0.741425 0.597412 5.46771 0.597412 11.2979C0.597412 17.128 5.3237 21.8543 11.1539 21.8543Z" fill="#1977F3"/>
<path d="M15.263 14.3501L15.7306 11.2979H12.8031V9.31753C12.8031 8.48322 13.2114 7.66822 14.5237 7.66822H15.8553V5.0703C15.8553 5.0703 14.6469 4.86395 13.492 4.86395C11.0811 4.86395 9.50453 6.32473 9.50453 8.97163V11.2979H6.82349V14.3501H9.50453V21.7267C10.0419 21.8113 10.5927 21.8543 11.1538 21.8543C11.715 21.8543 12.2657 21.8098 12.8031 21.7267V14.3501H15.263Z" fill="white"/>
</svg>
