<svg width="22" height="22" viewBox="0 0 22 22" fill="none" xmlns="http://www.w3.org/2000/svg">
<g clip-path="url(#clip0_1_71)">
<path d="M21.8432 11.4954C21.8432 10.6304 21.7713 9.99922 21.6159 9.34464H11.5081V13.2487H17.4411C17.3216 14.219 16.6756 15.6801 15.2402 16.6619L15.2201 16.7927L18.416 19.212L18.6374 19.2336C20.6708 17.3984 21.8432 14.6982 21.8432 11.4954Z" fill="#4285F4"/>
<path d="M11.5082 21.7818C14.4148 21.7818 16.855 20.8467 18.6374 19.2336L15.2402 16.6619C14.3311 17.2815 13.111 17.714 11.5082 17.714C8.66125 17.714 6.24498 15.8788 5.38365 13.3423L5.25739 13.3528L1.93427 15.8659L1.89081 15.984C3.66114 19.4206 7.29755 21.7818 11.5082 21.7818Z" fill="#34A853"/>
<path d="M5.38364 13.3423C5.15637 12.6877 5.02484 11.9863 5.02484 11.2616C5.02484 10.5369 5.15637 9.83553 5.37169 9.18095L5.36567 9.04154L2.00089 6.48801L1.8908 6.53918C1.16116 7.96527 0.742493 9.56671 0.742493 11.2616C0.742493 12.9565 1.16116 14.5579 1.8908 15.984L5.38364 13.3423Z" fill="#FBBC05"/>
<path d="M11.5082 4.80921C13.5297 4.80921 14.8933 5.66251 15.6709 6.37559L18.7092 3.47668C16.8432 1.78176 14.4149 0.741425 11.5082 0.741425C7.29756 0.741425 3.66114 3.10261 1.89081 6.53918L5.37169 9.18095C6.24499 6.64442 8.66126 4.80921 11.5082 4.80921Z" fill="#EB4335"/>
</g>
<defs>
<clipPath id="clip0_1_71">
<rect width="21.1129" height="21.1129" fill="white" transform="translate(0.741394 0.741425)"/>
</clipPath>
</defs>
</svg>
