<svg width="24" height="24" viewBox="0 0 24 24" fill="none" xmlns="http://www.w3.org/2000/svg">
<g clip-path="url(#clip0_128_1145)">
<path d="M15 12C15 12.5933 14.8241 13.1734 14.4944 13.6667C14.1648 14.1601 13.6962 14.5446 13.1481 14.7716C12.5999 14.9987 11.9967 15.0581 11.4147 14.9424C10.8328 14.8266 10.2982 14.5409 9.87868 14.1213C9.45912 13.7018 9.1734 13.1672 9.05765 12.5853C8.94189 12.0033 9.0013 11.4001 9.22836 10.8519C9.45543 10.3038 9.83994 9.83524 10.3333 9.50559C10.8266 9.17595 11.4067 9 12 9C12.7957 9 13.5587 9.31607 14.1213 9.87868C14.6839 10.4413 15 11.2044 15 12Z" stroke="#292D32" stroke-width="1.5" stroke-linecap="round" stroke-linejoin="round"/>
<path d="M2 12.88V11.12C2.00158 10.6166 2.20227 10.1342 2.55825 9.77824C2.91422 9.42227 3.39658 9.22158 3.9 9.22C5.71 9.22 6.45 7.94 5.54 6.37C5.29015 5.93354 5.22353 5.41583 5.35474 4.93033C5.48596 4.44484 5.8043 4.03117 6.24 3.78L7.97 2.79C8.35203 2.56773 8.80663 2.50607 9.23406 2.61856C9.6615 2.73104 10.0269 3.00847 10.25 3.39L10.36 3.58C11.26 5.15 12.74 5.15 13.65 3.58L13.76 3.39C13.9831 3.00847 14.3485 2.73104 14.7759 2.61856C15.2034 2.50607 15.658 2.56773 16.04 2.79L17.77 3.78C18.2057 4.03117 18.524 4.44484 18.6553 4.93033C18.7865 5.41583 18.7199 5.93354 18.47 6.37C17.56 7.94 18.3 9.22 20.11 9.22C20.6134 9.22158 21.0958 9.42227 21.4518 9.77824C21.8077 10.1342 22.0084 10.6166 22.01 11.12V12.88C22.0084 13.3834 21.8077 13.8658 21.4518 14.2218C21.0958 14.5777 20.6134 14.7784 20.11 14.78C18.3 14.78 17.56 16.06 18.47 17.63C18.7199 18.0665 18.7865 18.5842 18.6553 19.0697C18.524 19.5552 18.2057 19.9688 17.77 20.22L16.04 21.21C15.658 21.4323 15.2034 21.4939 14.7759 21.3814C14.3485 21.269 13.9831 20.9915 13.76 20.61L13.65 20.42C12.75 18.85 11.27 18.85 10.36 20.42L10.25 20.61C10.0269 20.9915 9.6615 21.269 9.23406 21.3814C8.80663 21.4939 8.35203 21.4323 7.97 21.21L6.24 20.22C5.8043 19.9688 5.48596 19.5552 5.35474 19.0697C5.22353 18.5842 5.29015 18.0665 5.54 17.63C6.45 16.06 5.71 14.78 3.9 14.78C3.39658 14.7784 2.91422 14.5777 2.55825 14.2218C2.20227 13.8658 2.00158 13.3834 2 12.88V12.88Z" stroke="#292D32" stroke-width="1.5" stroke-linecap="round" stroke-linejoin="round"/>
</g>
<defs>
<clipPath id="clip0_128_1145">
<rect width="24" height="24" fill="white"/>
</clipPath>
</defs>
</svg>
